<svg xmlns="http://www.w3.org/2000/svg" width="175.72" height="176.298" viewBox="0 0 175.72 176.298">
  <g id="Component_14_1" data-name="Component 14 – 1" transform="translate(0.512 0.5)">
    <path id="Path_167" data-name="Path 167" d="M2874.843,1546.075h121.132s4.982-.607,7.381,1.292,2.214,6.3,2.214,6.3v101.143l18.39,32.382-4,11.594h-169.5l-1.159-12.706,17.949-31.269-1.6-101.143s.715-4.405,3.014-6.3S2874.843,1546.075,2874.843,1546.075Z" transform="translate(-2849.298 -1523.492)" fill="#f8da5b" stroke="#000" stroke-width="1"/>
    <path id="Path_168" data-name="Path 168" d="M-1.805-.044l137.734.03" transform="translate(20.002 131.088)" fill="none" stroke="#000" stroke-width="1"/>
    <line id="Line_152" data-name="Line 152" x2="174.403" transform="translate(0.139 162.784)" fill="none" stroke="#000" stroke-width="1"/>
    <line id="Line_153" data-name="Line 153" y1="15.855" x2="8.272" transform="translate(54.597 146.929)" fill="none" stroke="#000" stroke-width="1"/>
    <line id="Line_154" data-name="Line 154" x1="8.272" y1="15.855" transform="translate(112.502 146.929)" fill="none" stroke="#000" stroke-width="1"/>
    <line id="Line_155" data-name="Line 155" x2="49.633" transform="translate(62.869 146.929)" fill="none" stroke="#000" stroke-width="1"/>
    <g id="Rectangle_26" data-name="Rectangle 26" transform="translate(28.747 35.6)" fill="#fff" stroke="#000" stroke-width="1">
      <rect width="115.809" height="85.478" rx="11" stroke="none"/>
      <rect x="0.5" y="0.5" width="114.809" height="84.478" rx="10.5" fill="none"/>
    </g>
    <path id="Path_165" data-name="Path 165" d="M3188.057,1531.965c11.563,0,23.906,10.394,23.906,22.867s-12.343,27.025-23.906,27.025-22.347-14.552-22.347-27.025S3176.494,1531.965,3188.057,1531.965Z" transform="translate(-3101.403 -1531.965)" fill="#172774" stroke="#000" stroke-width="1"/>
    <path id="Path_166" data-name="Path 166" d="M3183.756,1604.337s15.759.667,24.409,10.958,10.19,30.206,10.19,30.206,3.275,26.567-11.646,26.749-44.945.91-52.042-4.185-5.55-15.24-4-28.932,2.827-18.05,11.1-26.749S3183.756,1604.337,3183.756,1604.337Z" transform="translate(-3096.323 -1554.445)" fill="#172774" stroke="#000" stroke-width="1"/>
    <g id="Ellipse_7" data-name="Ellipse 7" transform="translate(37.708 47.319)" fill="#77d970" stroke="#000" stroke-width="1">
      <circle cx="5.17" cy="5.17" r="5.17" stroke="none"/>
      <circle cx="5.17" cy="5.17" r="4.67" fill="none"/>
    </g>
    <g id="Ellipse_8" data-name="Ellipse 8" transform="translate(37.708 74.203)" fill="#77d970" stroke="#000" stroke-width="1">
      <circle cx="5.17" cy="5.17" r="5.17" stroke="none"/>
      <circle cx="5.17" cy="5.17" r="4.67" fill="none"/>
    </g>
    <g id="Ellipse_9" data-name="Ellipse 9" transform="translate(126.633 48.698)" fill="#77d970" stroke="#000" stroke-width="1">
      <circle cx="5.17" cy="5.17" r="5.17" stroke="none"/>
      <circle cx="5.17" cy="5.17" r="4.67" fill="none"/>
    </g>
  </g>
</svg>
