<svg id="Component_30_1" data-name="Component 30 – 1" xmlns="http://www.w3.org/2000/svg" xmlns:xlink="http://www.w3.org/1999/xlink" width="1007.371" height="920.699" viewBox="0 0 1007.371 920.699">
  <defs>
    <filter id="Path_198" x="106.361" y="53" width="837" height="486" filterUnits="userSpaceOnUse">
      <feOffset dx="10" dy="10" input="SourceAlpha"/>
      <feGaussianBlur stdDeviation="5" result="blur"/>
      <feFlood flood-opacity="0.161"/>
      <feComposite operator="in" in2="blur"/>
      <feComposite in="SourceGraphic"/>
    </filter>
    <filter id="Path_126" x="510.629" y="525.225" width="233.342" height="395.474" filterUnits="userSpaceOnUse">
      <feOffset dx="10" dy="10" input="SourceAlpha"/>
      <feGaussianBlur stdDeviation="5" result="blur-2"/>
      <feFlood flood-opacity="0.161"/>
      <feComposite operator="in" in2="blur-2"/>
      <feComposite in="SourceGraphic"/>
    </filter>
  </defs>
  <path id="Path_5" data-name="Path 5" d="M522.5,0c288.569,0,492.51-33.183,492.51,112.9S934.1,581.845,645.535,581.845s-637.9-101.816-637.9-247.9S233.931,0,522.5,0Z" transform="translate(-7.639 128)" fill="#f5df81" opacity="0.13"/>
  <g id="Component_5_1" data-name="Component 5 – 1" transform="translate(111.361)">
    <g id="Rectangle_1" data-name="Rectangle 1" fill="#f8da5b" stroke="#000" stroke-width="3">
      <rect width="807" height="58" stroke="none"/>
      <rect x="1.5" y="1.5" width="804" height="55" fill="none"/>
    </g>
    <g transform="matrix(1, 0, 0, 1, -111.36, 0)" filter="url(#Path_198)">
      <g id="Path_198-2" data-name="Path 198" transform="translate(111.36 58)" fill="#fff">
        <path d="M 806 455 L 1 455 L 1 1 L 806 1 L 806 455 Z" stroke="none"/>
        <path d="M 2 2 L 2 454 L 805 454 L 805 2 L 2 2 M 0 0 L 807 0 L 807 456 L 0 456 L 0 0 Z" stroke="none" fill="#000"/>
      </g>
    </g>
    <g id="Rectangle_3" data-name="Rectangle 3" transform="translate(47 94)" fill="#fff" stroke="#000" stroke-width="1">
      <rect width="357" height="38" stroke="none"/>
      <rect x="0.5" y="0.5" width="356" height="37" fill="none"/>
    </g>
    <g id="Rectangle_4" data-name="Rectangle 4" transform="translate(47 145)" fill="#fff" stroke="#000" stroke-width="1">
      <rect width="357" height="216" stroke="none"/>
      <rect x="0.5" y="0.5" width="356" height="215" fill="none"/>
    </g>
    <g id="Rectangle_5" data-name="Rectangle 5" transform="translate(510 94)" fill="#fff" stroke="#000" stroke-width="1">
      <rect width="242" height="135" stroke="none"/>
      <rect x="0.5" y="0.5" width="241" height="134" fill="none"/>
    </g>
    <g id="Rectangle_6" data-name="Rectangle 6" transform="translate(469 272)" fill="#fff" stroke="#000" stroke-width="1">
      <rect width="308" height="190" stroke="none"/>
      <rect x="0.5" y="0.5" width="307" height="189" fill="none"/>
    </g>
    <line id="Line_1" data-name="Line 1" x2="75.379" transform="translate(47.792 401.27)" fill="none" stroke="#000" stroke-width="1"/>
    <line id="Line_2" data-name="Line 2" x2="66.831" transform="translate(176.013 401.27)" fill="none" stroke="#000" stroke-width="1"/>
    <line id="Line_3" data-name="Line 3" x2="51.289" transform="translate(253.723 401.27)" fill="none" stroke="#000" stroke-width="1"/>
    <line id="Line_4" data-name="Line 4" x2="76.933" transform="translate(316.668 401.27)" fill="none" stroke="#000" stroke-width="1"/>
    <line id="Line_5" data-name="Line 5" x2="51.677" transform="translate(47.403 414.481)" fill="none" stroke="#000" stroke-width="1"/>
    <line id="Line_6" data-name="Line 6" x2="132.496" transform="translate(109.96 414.481)" fill="none" stroke="#000" stroke-width="1"/>
    <line id="Line_7" data-name="Line 7" x2="33.804" transform="translate(252.557 414.481)" fill="none" stroke="#000" stroke-width="1"/>
    <line id="Line_8" data-name="Line 8" x2="98.303" transform="translate(294.91 414.481)" fill="none" stroke="#000" stroke-width="1"/>
    <line id="Line_9" data-name="Line 9" x2="75.379" transform="translate(47.403 427.691)" fill="none" stroke="#000" stroke-width="1"/>
    <line id="Line_10" data-name="Line 10" x2="88.978" transform="translate(175.625 427.691)" fill="none" stroke="#000" stroke-width="1"/>
    <line id="Line_11" data-name="Line 11" x2="40.798" transform="translate(275.871 427.691)" fill="none" stroke="#000" stroke-width="1"/>
    <line id="Line_12" data-name="Line 12" x2="69.162" transform="translate(324.051 427.691)" fill="none" stroke="#000" stroke-width="1"/>
    <line id="Line_13" data-name="Line 13" x2="118.508" transform="translate(47.403 440.902)" fill="none" stroke="#000" stroke-width="1"/>
    <line id="Line_14" data-name="Line 14" x2="33.804" transform="translate(175.625 440.902)" fill="none" stroke="#000" stroke-width="1"/>
    <line id="Line_15" data-name="Line 15" x2="41.575" transform="translate(263.048 440.902)" fill="none" stroke="#000" stroke-width="1"/>
    <line id="Line_16" data-name="Line 16" x2="69.162" transform="translate(324.051 440.902)" fill="none" stroke="#000" stroke-width="1"/>
    <line id="Line_17" data-name="Line 17" x2="75.379" transform="translate(47.403 454.113)" fill="none" stroke="#000" stroke-width="1"/>
    <line id="Line_18" data-name="Line 18" x2="131.33" transform="translate(139.49 454.113)" fill="none" stroke="#000" stroke-width="1"/>
    <line id="Line_19" data-name="Line 19" x2="42.352" transform="translate(275.871 454.113)" fill="none" stroke="#000" stroke-width="1"/>
    <line id="Line_20" data-name="Line 20" x2="69.162" transform="translate(324.051 454.113)" fill="none" stroke="#000" stroke-width="1"/>
    <line id="Line_21" data-name="Line 21" x2="32.638" transform="translate(129.387 401.27)" fill="none" stroke="#000" stroke-width="1"/>
    <line id="Line_22" data-name="Line 22" x2="40.798" transform="translate(127.444 427.691)" fill="none" stroke="#000" stroke-width="1"/>
    <line id="Line_23" data-name="Line 23" x2="33.804" transform="translate(219.142 440.902)" fill="none" stroke="#000" stroke-width="1"/>
    <g id="Rectangle_7" data-name="Rectangle 7" transform="translate(47 22)" fill="#fff" stroke="#000" stroke-width="1">
      <rect width="395" height="23" stroke="none"/>
      <rect x="0.5" y="0.5" width="394" height="22" fill="none"/>
    </g>
    <g id="Rectangle_8" data-name="Rectangle 8" transform="translate(498 22)" fill="#fff" stroke="#000" stroke-width="1">
      <rect width="165" height="23" stroke="none"/>
      <rect x="0.5" y="0.5" width="164" height="22" fill="none"/>
    </g>
    <g id="Rectangle_9" data-name="Rectangle 9" transform="translate(667 26)" fill="#fff" stroke="#000" stroke-width="1">
      <rect width="16" height="17" stroke="none"/>
      <rect x="0.5" y="0.5" width="15" height="16" fill="none"/>
    </g>
    <g id="Rectangle_10" data-name="Rectangle 10" transform="translate(688 26)" fill="#fff" stroke="#000" stroke-width="1">
      <rect width="16" height="17" stroke="none"/>
      <rect x="0.5" y="0.5" width="15" height="16" fill="none"/>
    </g>
    <g id="Rectangle_11" data-name="Rectangle 11" transform="translate(708 26)" fill="#fff" stroke="#000" stroke-width="1">
      <rect width="15" height="17" stroke="none"/>
      <rect x="0.5" y="0.5" width="14" height="16" fill="none"/>
    </g>
    <g id="Rectangle_12" data-name="Rectangle 12" transform="translate(785 5)" fill="#fff" stroke="#000" stroke-width="1">
      <rect width="15" height="17" stroke="none"/>
      <rect x="0.5" y="0.5" width="14" height="16" fill="none"/>
    </g>
    <g id="Ellipse_2" data-name="Ellipse 2" transform="translate(591 121)" fill="#fff" stroke="#000" stroke-width="1">
      <circle cx="40" cy="40" r="40" stroke="none"/>
      <circle cx="40" cy="40" r="39.5" fill="none"/>
    </g>
    <g id="Polygon_1" data-name="Polygon 1" transform="translate(604.401 153.268) rotate(-30)" fill="#f8da5b">
      <path d="M 34.10379791259766 29.80690002441406 L 0.865700364112854 29.80690002441406 L 17.48474884033203 1.00054931640625 L 34.10379791259766 29.80690002441406 Z" stroke="none"/>
      <path d="M 17.48474884033203 2.001115798950195 L 1.731410980224609 29.30690002441406 L 33.23808670043945 29.30690002441406 L 17.48474884033203 2.001115798950195 M 17.48474884033203 0 L 34.96949768066406 30.30690002441406 L 0 30.30690002441406 L 17.48474884033203 0 Z" stroke="none" fill="#000"/>
    </g>
    <line id="Line_24" data-name="Line 24" x2="306.954" y2="188.058" transform="translate(469.757 273.048)" fill="none" stroke="#000" stroke-width="1"/>
    <line id="Line_25" data-name="Line 25" y1="188.058" x2="306.954" transform="translate(469.757 273.048)" fill="none" stroke="#000" stroke-width="1"/>
    <line id="Line_161" data-name="Line 161" x2="14" y2="16" transform="translate(785.505 5.5)" fill="none" stroke="#000" stroke-width="1"/>
    <line id="Line_162" data-name="Line 162" y1="16" x2="14" transform="translate(785.505 5.5)" fill="none" stroke="#030202" stroke-width="1"/>
  </g>
  <g id="Component_9_1" data-name="Component 9 – 1" transform="translate(83.686 314)">
    <g id="Component_8_1" data-name="Component 8 – 1">
      <g transform="matrix(1, 0, 0, 1, -83.69, -314)" filter="url(#Path_126)">
        <path id="Path_126-2" data-name="Path 126" d="M3197.917,2583.41c3.9,3.346,3.283,10.651,3.283,10.651l-15.614,119.108s-6.411,39.178-9.814,72.268,13.962,158.548,13.962,158.548h-10.559l-9.2-66.205-129.578-.422,7.856-9.981,119.491.143-9.814-68.253H3012.5l-1.784,14.275-11.6-21.413s-.489-21.647.4-31.238,6.377-8.5,6.377-8.5l17.19-.924s35.952,4.379,61.691,5.47,42.328-.94,42.328-.94l10.465-4.907h16.712l22.779-159.758s3.282-7.9,6.863-10.559S3194.014,2580.065,3197.917,2583.41Z" transform="translate(-2482.81 -2048.79)" fill="#fff" stroke="#000" stroke-width="1"/>
      </g>
      <path id="Path_130" data-name="Path 130" d="M23.751,0C50.756.514,156.14,0,156.14,0s10,12-29.036,16S0,16,0,16L1.009,1.719S14.623-.174,23.751,0Z" transform="translate(432 388.199)" fill="#473d3d"/>
      <path id="Path_104" data-name="Path 104" d="M3098.113,2476.175s11.625,6.5,18.884,13a43.151,43.151,0,0,1,10.153,13s6.7,9.442,10.965,29.442,4.01,15.838,7.107,50.356,5.279,87.717,5.279,87.717l-26.4,4.264s-17.462,2.741-28.427,3.655-15.432,0-15.432,0-19.188-3.35-31.066-6.092-16.447-4.873-16.447-4.873V2615.67s-.254-19.087,1.015-31.27,4.061-17.462,4.061-17.462l14.823-48.732a107.689,107.689,0,0,0,22.538-16.041C3086.539,2491.658,3098.113,2476.175,3098.113,2476.175Z" transform="translate(-2566.5 -2362.785)" fill="#f5df81" stroke="#000" stroke-width="1"/>
      <path id="Path_124" data-name="Path 124" d="M2859.247,2886.251s-6.567-2.718-10.556-2.718-3.9,1.082-6.608,4.085-4.205,7.93-4.205,7.93,7.513,9.13,12.856,14.9a75.983,75.983,0,0,0,8.513,8.176,174.468,174.468,0,0,1,20.594,6.294,112.06,112.06,0,0,1,15.669,7.626h18.983l-13.536-5.6a56.746,56.746,0,0,0-7.919-3.858,92.707,92.707,0,0,0-9.746-3.046h-4.264l-19.781-13v-20.8Z" transform="translate(-2566.5 -2362.785)" fill="none" stroke="#000" stroke-width="1"/>
      <path id="Path_99" data-name="Path 99" d="M3035.978,2363.888a192.535,192.535,0,0,0-30.66,10.355,216.889,216.889,0,0,0-29.239,16.447s-13.3,7.665-20.914,15.838-8.934,13.807-9.543,16.853-.66,6.447,1.421,8.934,6.9,1.015,6.9,1.015l5.482-1.015-24.772,15.432-.812,2.64a14.94,14.94,0,0,0,3.046,0c.609-.2,6.041.2,20.914-4.67s28.579-13.858,38.579-14.823,17.97-1.523,37.361-2.437,40.2-1.218,40.2-1.218a12.912,12.912,0,0,0,7.919-3.858c3.553-3.655,5.026-5.025,6.295-10.761s1.523-4.619-1.218-12.183-5.482-11.219-9.746-18.072-2.894-5.178-7.31-9.34-5.33-4.772-10.355-7.31-4.264-2.386-9.746-2.843S3035.978,2363.888,3035.978,2363.888Z" transform="translate(-2566.5 -2362.785)" fill="#51dacf" stroke="#000" stroke-width="1"/>
      <path id="Path_100" data-name="Path 100" d="M2967.234,2442.212s1.921,7.9,6.52,13.383a136,136,0,0,1,8.236,10.981,135.9,135.9,0,0,0-1.716,15.785c-.3,7.7,10.74,2.1,12.01,4.8s11.324,15.785,11.324,15.785,2.852,5.45,8.922,5.147,12.679-3.031,15.36-6.358c1.166-1.447-3.237-25.006-3.237-25.006s-4.264-34.614-5.259-36.579c-.657-1.3-3.007.156-7.954-1.26-7.6-2.177-19.155-6.975-19.155-6.975Z" transform="translate(-2566.5 -2362.785)" fill="#fff" stroke="#000" stroke-width="1"/>
      <ellipse id="Ellipse_6" data-name="Ellipse 6" cx="3.5" cy="4" rx="3.5" ry="4" transform="translate(421.302 95.81) rotate(-25)" fill="#515151"/>
      <path id="Path_101" data-name="Path 101" d="M0,7A13.81,13.81,0,0,1,3.637,1.432C7.137.065,11.785.94,11.785.94" transform="translate(415 84.715)" fill="none" stroke="#000" stroke-width="1"/>
      <line id="Line_112" data-name="Line 112" transform="translate(421 88.715)" fill="none" stroke="#000" stroke-width="1"/>
      <path id="Path_102" data-name="Path 102" d="M11,0s.426,5.667-1.926,8.4S0,12,0,12" transform="translate(431 114.715)" fill="none" stroke="#000" stroke-width="1"/>
      <path id="Path_103" data-name="Path 103" d="M3074.764,2427.648s2.189,7.419,9.137,17.868,18.656,23.928,18.656,23.928.01.4.025.032-13.554,19.681-27.456,32.711-23.92,16.4-31.729,20.621-22.237,9.613-22.237,9.613l6.9-14.416v-17.665l-8.122-59.9a44.9,44.9,0,0,1-10.505-2.094,151.717,151.717,0,0,1-16.209-6.541s.616-.454,14.858-1.493,25.63-1.467,42.3-2.133S3074.764,2427.648,3074.764,2427.648Z" transform="translate(-2566.5 -2362.785)" fill="#a0dfdd" stroke="#000" stroke-width="1"/>
      <line id="Line_113" data-name="Line 113" x2="1" y2="6" transform="translate(452 69.715)" fill="none" stroke="#000" stroke-width="1"/>
      <line id="Line_114" data-name="Line 114" x2="11" y2="47" transform="translate(465 70.715)" fill="none" stroke="#000" stroke-width="1"/>
      <line id="Line_115" data-name="Line 115" x2="2" y2="7" transform="translate(477 124.715)" fill="none" stroke="#000" stroke-width="1"/>
      <line id="Line_116" data-name="Line 116" x2="10" y2="27" transform="translate(489 77.715)" fill="none" stroke="#000" stroke-width="1"/>
      <line id="Line_117" data-name="Line 117" x2="3" y2="7" transform="translate(484 66.715)" fill="none" stroke="#000" stroke-width="1"/>
      <line id="Line_118" data-name="Line 118" x2="5" y2="11" transform="translate(497 66.715)" fill="none" stroke="#000" stroke-width="1"/>
      <path id="Path_128" data-name="Path 128" d="M0,3S26.58.092,53.33-.658,107,0,107,0" transform="translate(404 59.715)" fill="none" stroke="#000" stroke-width="1"/>
      <path id="Path_127" data-name="Path 127" d="M-4.17,9.287S16.92,7.848,30.17,5.348,53,0,53,0" transform="translate(465 49.715)" fill="none" stroke="#000" stroke-width="1"/>
      <line id="Line_121" data-name="Line 121" x1="1" y2="9" transform="translate(544 195.715)" fill="none" stroke="#000" stroke-width="1"/>
      <line id="Line_122" data-name="Line 122" x1="10" y2="63" transform="translate(534 210.715)" fill="none" stroke="#000" stroke-width="1"/>
      <line id="Line_123" data-name="Line 123" x1="19" y2="64" transform="translate(475 189.715)" fill="none" stroke="#000" stroke-width="1"/>
      <path id="Path_106" data-name="Path 106" d="M3032.71,2617.722l-66.029,3.7,66.029,9.239Z" transform="translate(-2566.5 -2362.785)" fill="#fff" stroke="#000" stroke-width="1"/>
      <path id="Path_107" data-name="Path 107" d="M2966.681,2621.418h-14.518l-26.66,6.863-15.31,1.056-12.967,22.189h4.926l9.251-13.336h5.527l-10.813,12.615-3.124,4.926h16.1l6.41-3v3h2.6l3-4.926,17.541-3.845,8.771-6.969,6.248-6.488,40.49,14.3,3-21.146Z" transform="translate(-2566.5 -2362.785)" fill="#fff" stroke="#000" stroke-width="1"/>
      <path id="Path_108" data-name="Path 108" d="M8,0A19.782,19.782,0,0,0,4.07,3.068,45.121,45.121,0,0,0,0,8" transform="translate(350 267.715)" fill="none" stroke="#000" stroke-width="1"/>
      <path id="Path_109" data-name="Path 109" d="M20,0a7.237,7.237,0,0,0-3.74,2.272A13.415,13.415,0,0,0,14.2,7.177L0,22" transform="translate(343 270.715)" fill="none" stroke="#000" stroke-width="1"/>
      <path id="Path_110" data-name="Path 110" d="M7.511-1.586S5.55-.614,3.673,3.533A23.3,23.3,0,0,0,2.819,8.58L0,15" transform="translate(359 274.715)" fill="none" stroke="#000" stroke-width="1"/>
      <line id="Line_127" data-name="Line 127" x1="11" y2="10.231" transform="translate(351 282.715)" fill="none" stroke="#000" stroke-width="1"/>
      <path id="Path_111" data-name="Path 111" d="M19.437-.049,4.332,10.035l-5.545,2.346" transform="translate(370 267.715)" fill="none" stroke="#000" stroke-width="1"/>
      <line id="Line_129" data-name="Line 129" x1="5" y2="9" transform="translate(364 279.715)" fill="none" stroke="#000" stroke-width="1"/>
      <line id="Line_130" data-name="Line 130" x2="8" y2="3" transform="translate(389 267.715)" fill="none" stroke="#000" stroke-width="1"/>
      <path id="Path_112" data-name="Path 112" d="M2843.146,2574.167l16.63,82.356h106.377v3.7H2853.44v-3.7l-16.63-82.356Z" transform="translate(-2566.5 -2362.785)" fill="#fff" stroke="#000" stroke-width="1"/>
      <path id="Path_113" data-name="Path 113" d="M2733.337,2660.219v12.67h267.395v-12.67Z" transform="translate(-2566.5 -2362.785)" fill="#7e7e7e" stroke="#000" stroke-width="1"/>
      <path id="Path_115" data-name="Path 115" d="M2781.359,2932.833h176.449l7.107,10.667h-193.3Z" transform="translate(-2566.5 -2362.785)" fill="none" stroke="#000" stroke-width="1"/>
      <path id="Path_116" data-name="Path 116" d="M3046.19,2671.338v5.591s-33.566.772-60.082,2.745-45.982,5.147-45.982,5.147-36.219,6.823-44.965,19.162,10.993,54.273,10.993,54.273l12.01,25.736-29.511,71.375,54.561,30.884,18.344-41.1.187-.418s17.329-7.767,29.854-14.544a179.168,179.168,0,0,0,20.246-12.564l-20.246-40.149s4.4-14.654,8.522-21.946,7.949-7.222,7.949-7.222,44.137,8.267,77.332,8.471,42.58,1.7,55.448-7.653,8.591-34.206,8.591-34.206l-6.168-43.578s-24.133,5.468-46.781,6.4S3046.19,2671.338,3046.19,2671.338Z" transform="translate(-2566.5 -2362.785)" fill="#a0dfdd" stroke="#000" stroke-width="1"/>
      <line id="Line_131" data-name="Line 131" x2="65" y2="18" transform="translate(483 315.715)" fill="none" stroke="#000" stroke-width="1"/>
      <line id="Line_132" data-name="Line 132" x2="35" y2="10" transform="translate(535 323.715)" fill="none" stroke="#000" stroke-width="1"/>
      <line id="Line_133" data-name="Line 133" x2="6" y2="6" transform="translate(556 337.715)" fill="none" stroke="#000" stroke-width="1"/>
      <path id="Path_117" data-name="Path 117" d="M0,0S1.864,2.6,3.364,4.354A21.315,21.315,0,0,0,6,7" transform="translate(367 348.715)" fill="none" stroke="#000" stroke-width="1"/>
      <path id="Path_118" data-name="Path 118" d="M0,0S8.2,6,15.7,11,30,20,30,20" transform="translate(377 359.715)" fill="none" stroke="#000" stroke-width="1"/>
      <line id="Line_136" data-name="Line 136" x1="17" y1="33" transform="translate(407 380.715)" fill="none" stroke="#000" stroke-width="1"/>
      <line id="Line_137" data-name="Line 137" x2="31" y2="5" transform="translate(408 379.715)" fill="none" stroke="#000" stroke-width="1"/>
      <path id="Path_119" data-name="Path 119" d="M0,0A260.479,260.479,0,0,0,29.739,31.651,260.41,260.41,0,0,0,65,57" transform="translate(340 361.715)" fill="none" stroke="#000" stroke-width="1"/>
      <line id="Line_139" data-name="Line 139" x2="5" y2="3" transform="translate(412 422.715)" fill="none" stroke="#000" stroke-width="1"/>
      <path id="Path_121" data-name="Path 121" d="M32,66S23.343,49.111,15.411,32.508.272-.413.272-.413" transform="translate(351 420.715)" fill="none" stroke="#000" stroke-width="1"/>
      <path id="Path_120" data-name="Path 120" d="M.546,4.523S5.067,3.116,8.639,1.57C9.516,1.191,10.32.294,11,0" transform="translate(382 481.715)" fill="none" stroke="#000" stroke-width="1"/>
      <path id="Path_122" data-name="Path 122" d="M3003.7,2850.4a84.591,84.591,0,0,0,13.807-6.294,56.741,56.741,0,0,0,10.559-8.325l18.274,20.1s1.624,4.975-9.543,17.462-35.127,32.488-35.127,32.488l-16.447-11.168s12.64-18.173,17.259-29.239S3003.7,2850.4,3003.7,2850.4Z" transform="translate(-2566.5 -2362.785)" fill="#f5df81" stroke="#000" stroke-width="1"/>
      <path id="Path_123" data-name="Path 123" d="M2906.035,2892.634a38.651,38.651,0,0,1-11.98,2.843c-6.7.457-15.918-1.25-15.918-1.25v25.6a42.3,42.3,0,0,1,13.278,2.452c7.157,2.538,16.447,7.919,16.447,7.919l7.513,2.437,5.888-1.015s2.944-7.411,5.076-14.417,3.452-13.6,3.452-13.6Z" transform="translate(-2566.5 -2362.785)" fill="#f5df81" stroke="#000" stroke-width="1"/>
      <line id="Line_140" data-name="Line 140" x2="16" y2="18" transform="translate(445 454.715)" fill="none" stroke="#000" stroke-width="1"/>
      <line id="Line_141" data-name="Line 141" x2="18" y2="17" transform="translate(419 470.715)" fill="none" stroke="#000" stroke-width="1"/>
      <line id="Line_142" data-name="Line 142" x1="10" y2="19" transform="translate(363 521.715)" fill="none" stroke="#000" stroke-width="1"/>
      <line id="Line_143" data-name="Line 143" x1="12" y2="22" transform="translate(339 508.715)" fill="none" stroke="#000" stroke-width="1"/>
      <path id="Path_125" data-name="Path 125" d="M2985.224,2895.069s-4.62,5.686-5.889,10.559a13.7,13.7,0,0,0,.812,8.934s1.574,2.081,6.092,2.437,11.98-1.015,11.98-1.015l17.462-14.62s17.01-15.108,25.487-25.159,8.93-12.151,8.422-15.045a10,10,0,0,0-3.046-5.076l-.812,5.076s-1.218,3.046-6.9,9.543a163.181,163.181,0,0,1-15.838,16.447c-9.29,8.731-21.32,18.478-21.32,18.478Z" transform="translate(-2566.5 -2362.785)" fill="none" stroke="#000" stroke-width="1"/>
      <line id="Line_144" data-name="Line 144" x2="147" transform="translate(0 580.715)" fill="none" stroke="#000" stroke-width="1"/>
      <line id="Line_145" data-name="Line 145" x2="594" transform="translate(167 580.715)" fill="none" stroke="#000" stroke-width="1"/>
      <line id="Line_146" data-name="Line 146" x2="25" transform="translate(776 580.715)" fill="none" stroke="#000" stroke-width="1"/>
      <line id="Line_147" data-name="Line 147" x2="24" transform="translate(816 580.715)" fill="none" stroke="#000" stroke-width="1"/>
      <path id="Path_114" data-name="Path 114" d="M2859.247,2672.89v259.744h19.32V2672.89Z" transform="translate(-2566.45 -2362.785)" fill="#473d3d"/>
      <path id="Path_105" data-name="Path 105" d="M3007.858,2626.7s-1.357,5.289-2.24,10.533-1.294,10.444-1.294,10.444,17.433,6.771,32.042,11.755,26.4,8.183,26.4,8.183,2.82,2.837,5.7,3.537a9.757,9.757,0,0,0,5.823-.74s5.453-8.41,8.041-15.434a95.224,95.224,0,0,1,5.73-12.569s-14.286-.3-25.295-3.566a60.232,60.232,0,0,1-18.741-9.5l-2.64,2.9Z" transform="translate(-2566.5 -2362.785)" fill="#51dacf" stroke="#000" stroke-width="1"/>
    </g>
    <line id="Line_148" data-name="Line 148" x1="1" y2="34" transform="translate(429.5 481.699)" fill="none" stroke="#686161" stroke-width="1"/>
    <path id="Path_129" data-name="Path 129" d="M1,0,0,27.55" transform="translate(427.5 553.699)" fill="none" stroke="#686161" stroke-width="1"/>
    <line id="Line_150" data-name="Line 150" x1="3" y2="34" transform="translate(436.5 546.699)" fill="none" stroke="#686161" stroke-width="1"/>
  </g>
</svg>
