<svg xmlns="http://www.w3.org/2000/svg" width="390.139" height="174.987" viewBox="0 0 390.139 174.987">
  <g id="Component_11_1" data-name="Component 11 – 1" transform="translate(2.757 1.707)">
    <path id="Path_134" data-name="Path 134" d="M2352.224,1892.048l340.015,100.994v-77.008l-289.517-79.954Z" transform="translate(-2306.356 -1821.773)" fill="none" stroke="#000" stroke-width="3"/>
    <path id="Path_135" data-name="Path 135" d="M2509.073,1816.362l178.423,48.814-8.416,31.561-192.31-52.6Z" transform="translate(-2343.273 -1816.362)" fill="#77d970" stroke="#000" stroke-width="3"/>
    <path id="Path_136" data-name="Path 136" d="M2421.566,2002.48c-1.262.421-132.555-40.4-132.555-40.4l45.027-47.131,119.51,34.507Z" transform="translate(-2289.011 -1843.414)" fill="none" stroke="#000" stroke-width="3"/>
    <g id="Path_137" data-name="Path 137" transform="matrix(1, -0.017, 0.017, 1, 55.867, 65.442)" fill="#ff0075">
      <path d="M 25.17320442199707 35.40147399902344 C 21.31453514099121 35.40147399902344 17.81373405456543 35.00071334838867 14.76804447174072 34.21032333374023 C 11.86224460601807 33.45623397827148 9.373384475708008 32.3487663269043 7.370604991912842 30.91866493225098 C 5.445674896240234 29.54416465759277 3.970574855804443 27.8701343536377 2.98627495765686 25.94306564331055 C 2.000054836273193 24.01223564147949 1.500004887580872 21.81504440307617 1.500004887580872 19.41252517700195 C 1.500004887580872 17.18610572814941 2.193704843521118 14.97982501983643 3.561844825744629 12.85499477386475 C 4.933525085449219 10.72463512420654 6.904094696044922 8.787204742431641 9.418794631958008 7.096524715423584 C 12.00014495849609 5.361034870147705 14.9981050491333 3.992404937744141 18.32939529418945 3.028664827346802 C 21.83560562133789 2.014314889907837 25.54735565185547 1.499994874000549 29.36154556274414 1.499994874000549 C 29.88234519958496 1.499994874000549 30.41113471984863 1.509874820709229 30.93322563171387 1.529364824295044 C 38.95869445800781 1.82885479927063 45.10741424560547 3.517074823379517 49.20859527587891 6.547114849090576 C 51.13671493530273 7.971654891967773 52.64041519165039 9.722624778747559 53.67792510986328 11.75138473510742 C 54.71064376831055 13.77077484130859 55.31607437133789 16.1295051574707 55.47739410400391 18.76204490661621 C 55.65026473999023 21.58307456970215 54.61122512817383 24.21129417419434 52.38915634155273 26.57369422912598 C 49.88839340209961 29.23238563537598 45.96596527099609 31.46883392333984 41.04589462280273 33.04125595092773 C 36.21455383300781 34.58532333374023 30.72586441040039 35.40147399902344 25.17320442199707 35.40147399902344 Z" stroke="none"/>
      <path d="M 29.36153411865234 2.999996185302734 C 25.68842506408691 2.999996185302734 22.11693572998047 3.494434356689453 18.74625396728516 4.469573974609375 C 15.56449508666992 5.390054702758789 12.70786666870117 6.692705154418945 10.25570297241211 8.341344833374023 C 7.944393157958984 9.895275115966797 6.065803527832031 11.73687553405762 4.823013305664062 13.66703414916992 C 3.613346099853516 15.54575538635254 2.999996185302734 17.47882461547852 2.999996185302734 19.41252517700195 C 2.999996185302734 23.75358581542969 4.763744354248047 27.21409606933594 8.242263793945312 29.69793510437012 C 12.093505859375 32.44791412353516 17.94812393188477 33.90147399902344 25.1732063293457 33.90147399902344 C 30.5728645324707 33.90147399902344 35.90365600585938 33.10994338989258 40.58925628662109 31.61245536804199 C 45.26732635498047 30.11736488342285 48.96983337402344 28.01962471008301 51.29652404785156 25.54599380493164 C 52.25790405273438 24.52390480041504 52.97161483764648 23.44444465637207 53.4178466796875 22.33761596679688 C 53.86472320556641 21.22914505004883 54.05393600463867 20.05701446533203 53.98020553588867 18.85378456115723 C 53.68149566650391 13.97912406921387 51.82912445068359 10.34821510314941 48.31724548339844 7.753555297851562 C 44.46327590942383 4.906154632568359 38.59562683105469 3.316356658935547 30.87727546691895 3.028316497802734 C 30.37372398376465 3.009525299072266 29.86375427246094 2.999996185302734 29.36153411865234 2.999996185302734 M 29.36153984069824 0 C 29.90099716186523 0 30.44310188293457 0.01002883911132812 30.98916435241699 0.03040313720703125 C 47.99811553955078 0.6651458740234375 56.28047561645508 7.343084335327148 56.97458648681641 18.67029571533203 C 57.66868591308594 29.99750518798828 41.406982421875 36.90147399902344 25.1732063293457 36.90147399902344 C 8.939414978027344 36.90147399902344 -3.814697265625e-06 30.03226470947266 -3.814697265625e-06 19.41252517700195 C -3.814697265625e-06 9.133716583251953 13.09781646728516 0 29.36153984069824 0 Z" stroke="none" fill="#000"/>
    </g>
    <path id="Path_138" data-name="Path 138" d="M2446.872,1885.188s.663-3.08-1.207-4.426-2.76-1.217-5.634-.738a13.377,13.377,0,0,0-5.339,2.439,17.559,17.559,0,0,0-4.862,5.451c-1.547,3.094-1.6,4.125-.865,6.335s3.744,2.3,5.03,2.473,6.59-2.473,6.59-2.473" transform="translate(-2327.287 -1833.738)" fill="none" stroke="#000" stroke-width="3"/>
    <path id="Path_139" data-name="Path 139" d="M2462.865,1886.354l6.188,1.915s1.88,1.831,1.327,3.709-1.273,2.121-3.152,3.219a10.588,10.588,0,0,1-4.363,1.175l-.737,8.693.737-8.693-6.188-2.21-6.041,7.956Z" transform="translate(-2333.359 -1835.567)" fill="none" stroke="#000" stroke-width="3"/>
    <path id="Path_140" data-name="Path 140" d="M2499.26,1895.8l-10.314-2.947-5.009,7.219,6.483,1.916" transform="translate(-2342.496 -1837.35)" fill="none" stroke="#000" stroke-width="3"/>
    <path id="Path_141" data-name="Path 141" d="M2485.575,1915.086l-10.166-3.241,6.188-8.84" transform="translate(-2340.156 -1840.136)" fill="none" stroke="#000" stroke-width="3"/>
    <path id="Path_142" data-name="Path 142" d="M2512.072,1920.793l3.978-19.007-18.712,15.028" transform="translate(-2346.173 -1839.802)" fill="none" stroke="#000" stroke-width="3"/>
    <path id="Path_143" data-name="Path 143" d="M2516.407,1916.677l-8.1-2.5" transform="translate(-2349.182 -1843.2)" fill="none" stroke="#000" stroke-width="3"/>
    <path id="Path_144" data-name="Path 144" d="M2538.152,1906.863l5.387,1.519,6.105,1.722" transform="translate(-2357.372 -1841.194)" fill="none" stroke="#000" stroke-width="3"/>
    <path id="Path_145" data-name="Path 145" d="M2531.248,1925.255l10.461-15.956" transform="translate(-2355.478 -1841.863)" fill="none" stroke="#000" stroke-width="3"/>
    <path id="Path_146" data-name="Path 146" d="M2562.826,1914.952l-10.461,16.968" transform="translate(-2361.272 -1843.414)" fill="none" stroke="#000" stroke-width="3"/>
    <path id="Path_147" data-name="Path 147" d="M2549.726,1937.117l4.42,1.326" transform="translate(-2360.548 -1849.496)" fill="none" stroke="#000" stroke-width="3"/>
    <path id="Path_148" data-name="Path 148" d="M2563.533,1914.173l4.273,1.326" transform="translate(-2364.336 -1843.2)" fill="none" stroke="#000" stroke-width="3"/>
    <path id="Path_149" data-name="Path 149" d="M2578.7,1919.655l-3.389,19.3" transform="translate(-2367.568 -1844.705)" fill="none" stroke="#000" stroke-width="3"/>
    <path id="Path_150" data-name="Path 150" d="M2617.389,1930.214l-10.775-2.843-9.577,17.975L2607.5,1948" transform="translate(-2373.529 -1846.822)" fill="none" stroke="#000" stroke-width="3"/>
    <path id="Path_151" data-name="Path 151" d="M2604.753,1938.336l6.778,2.063" transform="translate(-2375.646 -1849.83)" fill="none" stroke="#000" stroke-width="3"/>
    <path id="Path_152" data-name="Path 152" d="M2640.287,1957.641l7.514,2.21s5.086-1.237,7.809-3.831a11.473,11.473,0,0,0,3.08-6.546s.992-4.208-1.476-6.639-8.235-2.875-8.235-2.875Z" transform="translate(-2385.396 -1850.276)" fill="none" stroke="#000" stroke-width="3"/>
    <path id="Path_153" data-name="Path 153" d="M2688.386,1952.134l-10.608-4.052-8.251,18.417,10.608,3.094" transform="translate(-2393.419 -1852.505)" fill="none" stroke="#000" stroke-width="3"/>
    <path id="Path_154" data-name="Path 154" d="M2676.227,1959.656l7.072,2.21" transform="translate(-2395.258 -1855.68)" fill="none" stroke="#000" stroke-width="3"/>
    <path id="Path_155" data-name="Path 155" d="M2712.792,1963.624s-.81-5.083-3.683-6.188-6.593-.332-7.809,1.768-1.788,4.786,2.947,6.63,6.7,4.2,6.188,6.925-3.221,5.185-9.434,3.3-3.827-6.986-3.827-6.986" transform="translate(-2400.882 -1854.933)" fill="none" stroke="#000" stroke-width="3"/>
    <path id="Path_156" data-name="Path 156" d="M2733,1965.545l-7.367,17.975-2.5-1.031" transform="translate(-2408.128 -1857.296)" fill="none" stroke="#000" stroke-width="3"/>
    <path id="Path_157" data-name="Path 157" d="M2728.18,1990.958l-4.641-2.063" transform="translate(-2408.24 -1863.703)" fill="none" stroke="#000" stroke-width="3"/>
    <path id="Path_158" data-name="Path 158" d="M2738,1965.043l-4.715-1.326" transform="translate(-2410.914 -1856.795)" fill="none" stroke="#000" stroke-width="3"/>
    <path id="Path_159" data-name="Path 159" d="M2761.616,1977.363s-1.188-4.987-4.392-6.166-3.823-.889-6.773.939a9.748,9.748,0,0,0-5.03,6.371c-1.031,3.2-.844,4.287,0,7.243s1.975,4.223,5.03,4.963,4.867-.775,7.511-2.75a8.418,8.418,0,0,0,3.065-5.148l-6.483-2.21" transform="translate(-2414.05 -1858.654)" fill="none" stroke="#000" stroke-width="3"/>
    <path id="Path_160" data-name="Path 160" d="M2774.5,1997.1l6.63-18.564,5.451,22.1,6.188-19.154" transform="translate(-2422.224 -1860.862)" fill="none" stroke="#000" stroke-width="3"/>
    <path id="Path_161" data-name="Path 161" d="M2656.963,1876.25l-1.295,9.439,4.532-1.942,2.733,4.574,1.238-.825-2.425-3.749,5.468.5Z" transform="translate(-2389.617 -1832.795)" fill="none" stroke="#000" stroke-width="3"/>
    <path id="Path_162" data-name="Path 162" d="M2716.114,1912.462l4.493-12.809,24.746,6.975-3.353,13.01Z" transform="translate(-2406.202 -1839.216)" fill="#eee" stroke="#000" stroke-width="3"/>
    <path id="Path_163" data-name="Path 163" d="M2509.8,1851.064c-5.144-1.308-11.77-1.395-16.652,2.005s-1.744,9.285,3.749,11.421c3.323,1.292,9.154,1.133,12.9,0s4.784-2.31,6.015-3.662C2518.928,1857.406,2514.939,1852.372,2509.8,1851.064Z" transform="translate(-2344.358 -1825.654)" fill="#172774" stroke="#000" stroke-width="3"/>
    <path id="Path_164" data-name="Path 164" d="M2578.7,1919.655l-3.389,19.3" transform="matrix(0.875, 0.485, -0.485, 0.875, -1104.65, -2850.164)" fill="none" stroke="#000" stroke-width="3"/>
  </g>
</svg>
